HIERARCHY
ROOT Hips
{
	OFFSET	0.00	0.00	0.00
	CHANNELS 6 Xposition Yposition Zposition Zrotation Xrotation Yrotation
	JOINT LeftUpLeg
	{
		OFFSET	 0.126116	-0.014019	-0.065224
		CHANNELS 3 Zrotation Xrotation Yrotation
		JOINT LeftLeg
		{
			OFFSET	 0.000000	 0.000000	 0.569914
			CHANNELS 3 Zrotation Xrotation Yrotation
			JOINT LeftFoot
			{
				OFFSET	 0.000000	 0.000000	 0.544423
				CHANNELS 3 Zrotation Xrotation Yrotation
				JOINT LeftToeBase
				{
					OFFSET	 0.000000	 0.000000	 0.207117
					CHANNELS 3 Zrotation Xrotation Yrotation
					End Site
					{
						OFFSET	 0.000000	 0.000000	 0.207117
					}
				}
			}
		}
	}
	JOINT RightUpLeg
	{
		OFFSET	-0.124023	-0.008373	-0.065224
		CHANNELS 3 Zrotation Xrotation Yrotation
		JOINT RightLeg
		{
			OFFSET	 0.000000	 0.000000	 0.570047
			CHANNELS 3 Zrotation Xrotation Yrotation
			JOINT RightFoot
			{
				OFFSET	 0.000000	 0.000000	 0.544354
				CHANNELS 3 Zrotation Xrotation Yrotation
				JOINT RightToeBase
				{
					OFFSET	 0.000000	 0.000000	 0.207540
					CHANNELS 3 Zrotation Xrotation Yrotation
					End Site
					{
						OFFSET	 0.000000	 0.000000	 0.207540
					}
				}
			}
		}
	}
	JOINT Spine
	{
		OFFSET	 0.000184	-0.007763	 0.117403
		CHANNELS 3 Zrotation Xrotation Yrotation
		JOINT Spine1
		{
			OFFSET	 0.000000	 0.000000	 0.137269
			CHANNELS 3 Zrotation Xrotation Yrotation
			JOINT Spine2
			{
				OFFSET	 0.000000	 0.000000	 0.156879
				CHANNELS 3 Zrotation Xrotation Yrotation
				JOINT LeftShoulder
				{
					OFFSET	 0.080501	-0.002496	 0.160144
					CHANNELS 3 Zrotation Xrotation Yrotation
					JOINT LeftArm
					{
						OFFSET	 0.000000	 0.000000	 0.164363
						CHANNELS 3 Zrotation Xrotation Yrotation
						JOINT LeftForeArm
						{
							OFFSET	 0.000000	 0.000000	 0.364576
							CHANNELS 3 Zrotation Xrotation Yrotation
							JOINT LeftHand
							{
								OFFSET	 0.000000	 0.000000	 0.360812
								CHANNELS 3 Zrotation Xrotation Yrotation
								JOINT LeftHandIndex1
								{
									OFFSET	 0.000000	 0.000000	 0.086006
									CHANNELS 3 Zrotation Xrotation Yrotation
									JOINT LeftHandIndex2
									{
										OFFSET	 0.000000	 0.000000	 0.047236
										CHANNELS 3 Zrotation Xrotation Yrotation
										JOINT LeftHandIndex3
										{
											OFFSET	-0.004284	-0.000551	 0.038166
											CHANNELS 3 Zrotation Xrotation Yrotation
											End Site
											{
												OFFSET	-0.004284	-0.000551	 0.038166
											}
										}
									}
								}
							}
						}
					}
				}
				JOINT Neck
				{
					OFFSET	 0.000000	 0.000000	 0.176489
					CHANNELS 3 Zrotation Xrotation Yrotation
					JOINT Head
					{
						OFFSET	 0.000000	-0.001747	 0.077940
						CHANNELS 3 Zrotation Xrotation Yrotation
						End Site
						{
							OFFSET	 0.000000	-0.001747	 0.077940
						}
					}
				}
				JOINT RightShoulder
				{
					OFFSET	-0.080363	 0.000306	 0.159706
					CHANNELS 3 Zrotation Xrotation Yrotation
					JOINT RightArm
					{
						OFFSET	 0.000000	 0.000000	 0.164196
						CHANNELS 3 Zrotation Xrotation Yrotation
						JOINT RightForeArm
						{
							OFFSET	 0.000000	 0.000000	 0.365611
							CHANNELS 3 Zrotation Xrotation Yrotation
							JOINT RightHand
							{
								OFFSET	 0.000000	 0.000000	 0.360648
								CHANNELS 3 Zrotation Xrotation Yrotation
								JOINT RightHandIndex1
								{
									OFFSET	 0.000000	 0.000000	 0.069977
									CHANNELS 3 Zrotation Xrotation Yrotation
									JOINT RightHandIndex2
									{
										OFFSET	 0.000000	 0.000000	 0.052305
										CHANNELS 3 Zrotation Xrotation Yrotation
										JOINT RightHandIndex3
										{
											OFFSET	 0.009002	-0.000782	 0.042196
											CHANNELS 3 Zrotation Xrotation Yrotation
											End Site
											{
												OFFSET	 0.009002	-0.000782	 0.042196
											}
										}
									}
								}
							}
						}
					}
				}
			}
		}
	}
}
MOTION
Frames:    6
Frame Time: 0.03333334
 0.013359	 0.055603	 1.203255	 5.573392	-0.590061	-2.763948	-0.911703	-12.916890	-171.102900	 1.213038	-38.284300	 0.533048	 48.287320	 79.598090	-52.863670	-2.368644	 31.740500	-0.072769	-6.923352	-31.018570	-176.870100	 12.103400	-51.912180	 10.187500	 47.323130	 83.158940	-44.632200	 2.358996	 32.996550	 0.103138	-6.683107	 8.087692	 1.857517	-1.928629	 1.818405	-1.195957	 3.004818	-2.623291	 1.477735	-94.091910	 58.978050	 175.059300	 28.797230	 46.955780	-18.221020	-2.370587	-3.036535	-31.328220	-1.497126	-25.740960	-8.876606	-4.865524	 19.361580	-2.798738	-3.870962	 21.607690	 2.192022	-4.804530	 5.589466	 0.144397	-0.042844	-5.102132	 0.225728	 0.967488	 1.527744	 2.606508	 89.722170	 61.747170	 179.856800	-19.657290	 53.245580	 11.543480	-2.177497	-1.911822	 9.289432	-4.906724	-10.474690	 0.376289	 6.278830	 23.730340	-0.549117	 2.021380	 43.578100	-7.113855	 0.760862	 23.237590	 3.451109
 0.012887	 0.044556	 1.203337	 6.139075	 0.064035	-2.941258	-1.356157	-12.942360	-171.016000	 1.449262	-37.942230	 0.674281	 47.229130	 79.518510	-51.956780	-2.367050	 32.000250	-0.078678	-8.233828	-32.710730	-176.818600	 12.977490	-50.624280	 10.699550	 97.077260	 83.226010	-95.907970	 2.359940	 32.856490	 0.099892	-6.843770	 7.505825	 1.747131	-1.838855	 1.890952	-0.871895	 2.695543	-3.112653	 1.289425	-94.258670	 58.991100	 174.702000	 29.501310	 46.264870	-18.393350	-2.839068	-2.955619	-33.200370	-1.444397	-27.033010	-9.164555	-4.856094	 19.586060	-2.810118	-3.858989	 21.760060	 2.179856	-4.799701	 5.646381	 0.141059	-0.015648	-5.142102	 0.277765	 0.735789	 1.278478	 2.522147	 89.635630	 61.871750	 179.648000	-19.044390	 53.706870	 10.058180	-2.944522	-2.133791	 9.694639	-5.315269	-10.803400	-0.105747	 6.257588	 22.362320	-0.582112	 2.162081	 42.362870	-7.238014	 1.062705	 21.873430	 3.305582
 0.012159	 0.011374	 1.202955	 6.547612	 0.908238	-3.562513	-1.648076	-11.485010	-170.628600	 1.672907	-36.599670	 0.787210	 45.651370	 79.452520	-50.496840	-2.359228	 33.198400	-0.106264	-7.306006	-35.617260	-175.877100	 12.831700	-46.224000	 9.900892	 131.872700	 75.097640	-132.708900	 2.353344	 33.802560	 0.121994	-6.731305	 6.395131	 1.899459	-1.589782	 3.031349	-0.195448	 1.998649	-4.297042	 0.811961	-94.465140	 58.963960	 174.266200	 29.622090	 44.494670	-19.071070	-3.974144	-2.562552	-37.206400	-1.931370	-29.666400	-8.467200	-4.827071	 20.191260	-2.822549	-3.826626	 22.168800	 2.146982	-4.772632	 5.964369	 0.122336	 0.021121	-5.271546	 0.341155	 0.098631	 0.817533	 2.407136	 89.453580	 62.041630	 179.205300	-17.481990	 54.484420	 6.635691	-4.996696	-2.726991	 10.537390	-6.595031	-11.930920	-2.023001	 6.199175	 19.212800	-0.702772	 2.514398	 39.062850	-7.544633	 1.742139	 18.690440	 3.000623
 0.010187	-0.033963	 1.201326	 6.917873	 0.990406	-3.889484	-2.249778	-8.385016	-170.662400	 2.018774	-34.827410	 0.951674	 39.108460	 78.566600	-44.066910	-2.330158	 36.853440	-0.194279	-6.001732	-36.757970	-174.944900	 12.257890	-38.652830	 8.215704	 121.606800	 74.144240	-123.630100	 2.335643	 36.039380	 0.175814	-6.908478	 6.207069	 1.951577	-1.301181	 4.125613	 0.388976	 1.185631	-5.585845	 0.290735	-94.541660	 58.955240	 174.104800	 27.892760	 42.943070	-19.923330	-4.228299	-2.631370	-40.141260	-3.151414	-33.054870	-9.248616	-4.849359	 20.515760	-3.047690	-3.786789	 22.665940	 2.106523	-4.719025	 6.590018	 0.085017	 0.116554	-5.408862	 0.341321	-0.564830	 0.512634	 2.006576	 89.357960	 61.919410	 178.978900	-15.572400	 54.880340	 2.479052	-6.749561	-3.219540	 11.010860	-7.359120	-14.360460	-3.957560	 6.166694	 15.996290	-0.652084	 2.885655	 35.138680	-7.859910	 2.393803	 15.497730	 2.739509
 0.004893	-0.088280	 1.197187	 7.276655	 0.700161	-3.250125	-2.963657	-4.498422	-171.904500	 2.100214	-33.365370	 0.961288	 25.500830	 74.761100	-29.999130	-2.216874	 45.844100	-0.445097	-4.898649	-36.046030	-175.098900	 8.461864	-28.798890	 4.465925	 54.921790	 78.117580	-54.091070	 2.339974	 35.525160	 0.163243	-7.254155	 6.172279	 1.235587	-0.869924	 5.685043	 0.909811	 0.103443	-6.724737	-0.410970	-94.480250	 59.303320	 174.178000	 25.661460	 41.806200	-21.928560	-4.446220	-2.565383	-41.480050	-5.015487	-36.761500	-10.515490	-4.886999	 20.669550	-3.314074	-3.758246	 23.018210	 2.077544	-4.646931	 7.422724	 0.034350	 0.227926	-5.478059	 0.256410	-1.302310	 0.432535	 1.867329	 89.354590	 61.518280	 178.985600	-13.993350	 54.702210	-1.404129	-8.075403	-3.661218	 11.499530	-8.331278	-17.671790	-5.338925	 6.236167	 12.823360	-0.152713	 3.086598	 32.799370	-8.026548	 2.982209	 12.506360	 2.532033
-0.002272	-0.145618	 1.188553	 8.414909	-0.274198	-2.176199	-2.671839	 0.240166	-174.120900	-0.288952	-32.430130	-0.344120	 14.654190	 65.213860	-15.794510	-1.944922	 56.882670	-0.874535	-1.828702	-36.715160	-174.394600	 6.251297	-24.137490	 2.878230	 4.727416	 64.422820	 0.869005	 2.333818	 36.249690	 0.181000	-7.919388	 6.428590	 0.015703	-0.530809	 8.005557	 1.573213	-1.291923	-7.809597	-1.377886	-94.392500	 59.058560	 174.406000	 23.643100	 40.535090	-23.690910	-4.900517	-2.297629	-43.207570	-5.894021	-38.654050	-10.524980	-4.896197	 20.921190	-3.451841	-3.734074	 23.313870	 2.053010	-4.567370	 8.329840	-0.022171	 0.369298	-5.413183	 0.287868	-2.220069	 0.667873	 2.077471	 89.215760	 61.414360	 178.661100	-12.751840	 54.384590	-4.316267	-8.613966	-4.077887	 12.370480	-8.847997	-21.368600	-4.992031	 6.341381	 9.886705	 0.376647	 3.308087	 30.027730	-8.206391	 3.433562	 10.148840	 2.392123
